<svg width="24" height="24" viewBox="0 0 24 24" fill="none" xmlns="http://www.w3.org/2000/svg">
<mask id="mask0_160_3358" style="mask-type:alpha" maskUnits="userSpaceOnUse" x="0" y="0" width="24" height="24">
<rect width="24" height="24" fill="#D9D9D9"/>
</mask>
<g mask="url(#mask0_160_3358)">
<path d="M5 14C5 14.8667 5.175 15.6875 5.525 16.4625C5.875 17.2375 6.375 17.9167 7.025 18.5C7.00833 18.4167 7 18.3417 7 18.275V18.05C7 17.5167 7.1 17.0167 7.3 16.55C7.5 16.0833 7.79167 15.6583 8.175 15.275L11 12.5L13.825 15.275C14.2083 15.6583 14.5 16.0833 14.7 16.55C14.9 17.0167 15 17.5167 15 18.05V18.275C15 18.3417 14.9917 18.4167 14.975 18.5C15.625 17.9167 16.125 17.2375 16.475 16.4625C16.825 15.6875 17 14.8667 17 14C17 13.1667 16.8458 12.3792 16.5375 11.6375C16.2292 10.8958 15.7833 10.2333 15.2 9.65C14.8667 9.86667 14.5167 10.0292 14.15 10.1375C13.7833 10.2458 13.4083 10.3 13.025 10.3C11.9917 10.3 11.0958 9.95833 10.3375 9.275C9.57917 8.59167 9.14167 7.75 9.025 6.75C8.375 7.3 7.8 7.87083 7.3 8.4625C6.8 9.05417 6.37917 9.65417 6.0375 10.2625C5.69583 10.8708 5.4375 11.4917 5.2625 12.125C5.0875 12.7583 5 13.3833 5 14ZM11 15.3L9.575 16.7C9.39167 16.8833 9.25 17.0917 9.15 17.325C9.05 17.5583 9 17.8 9 18.05C9 18.5833 9.19583 19.0417 9.5875 19.425C9.97917 19.8083 10.45 20 11 20C11.55 20 12.0208 19.8083 12.4125 19.425C12.8042 19.0417 13 18.5833 13 18.05C13 17.7833 12.95 17.5375 12.85 17.3125C12.75 17.0875 12.6083 16.8833 12.425 16.7L11 15.3ZM11 3V6.3C11 6.86667 11.1958 7.34167 11.5875 7.725C11.9792 8.10833 12.4583 8.3 13.025 8.3C13.325 8.3 13.6042 8.2375 13.8625 8.1125C14.1208 7.9875 14.35 7.8 14.55 7.55L15 7C16.2333 7.7 17.2083 8.675 17.925 9.925C18.6417 11.175 19 12.5333 19 14C19 16.2333 18.225 18.125 16.675 19.675C15.125 21.225 13.2333 22 11 22C8.76667 22 6.875 21.225 5.325 19.675C3.775 18.125 3 16.2333 3 14C3 11.85 3.72083 9.80833 5.1625 7.875C6.60417 5.94167 8.55 4.31667 11 3ZM21 11C20.7167 11 20.4792 10.9042 20.2875 10.7125C20.0958 10.5208 20 10.2833 20 10C20 9.71667 20.0958 9.47917 20.2875 9.2875C20.4792 9.09583 20.7167 9 21 9C21.2833 9 21.5208 9.09583 21.7125 9.2875C21.9042 9.47917 22 9.71667 22 10C22 10.2833 21.9042 10.5208 21.7125 10.7125C21.5208 10.9042 21.2833 11 21 11ZM20 8V3H22V8H20Z" fill="white"/>
</g>
</svg>
